<?xml version="1.0" encoding="UTF-8" standalone="no"?>
<svg xmlns="http://www.w3.org/2000/svg" contentScriptType="application/ecmascript" contentStyleType="text/css"
     height="894px" preserveAspectRatio="none" style="width:1048px;height:894px;" version="1.1" viewBox="0 0 1048 894"
     width="1048px" zoomAndPan="magnify">
    <defs/>
    <g><!--MD5=[ae5d508d750f57c6669eb61bcc07b8c1]
cluster CityMicroservice-->
        <rect fill="#FFFFFF" height="608.5" style="stroke:#000000;stroke-width:1.5;" width="561" x="192" y="280"/>
        <text fill="#000000" font-family="sans-serif" font-size="14" font-weight="bold" lengthAdjust="spacing"
              textLength="119" x="413" y="296.5332">CityMicroservice
        </text><!--MD5=[ad4cef9d19ad0a33dc009fb52e0f616f]
cluster MachineLearningOnline-->
        <rect fill="#FFFFFF" height="222" style="stroke:#000000;stroke-width:1.5;" width="288" x="292" y="539.5"/>
        <text fill="#000000" font-family="sans-serif" font-size="14" font-weight="bold" lengthAdjust="spacing"
              textLength="168" x="352" y="556.0332">MachineLearningOnline
        </text><!--MD5=[8fa637a48ddd28f69f82099d0298927b]
cluster VehicleEdgeApp-->
        <rect fill="#FFFFFF" height="190" style="stroke:#000000;stroke-width:1.5;" width="507" x="7" y="7"/>
        <text fill="#000000" font-family="sans-serif" font-size="14" font-weight="bold" lengthAdjust="spacing"
              textLength="115" x="203" y="23.5332">VehicleEdgeApp
        </text><!--MD5=[82052e7804624252615773b64a8792d4]
cluster dataStreamingV-->
        <rect fill="#FFFFFF" height="106" style="stroke:#000000;stroke-width:1.5;" width="282" x="200" y="59"/>
        <text fill="#000000" font-family="sans-serif" font-size="14" font-weight="bold" lengthAdjust="spacing"
              textLength="102" x="290" y="75.5332">DataStreaming
        </text><!--MD5=[e180bf322c4533d9a52b99788d69b138]
cluster PassengerEdgeApp-->
        <rect fill="#FFFFFF" height="190" style="stroke:#000000;stroke-width:1.5;" width="504" x="538" y="7"/>
        <text fill="#000000" font-family="sans-serif" font-size="14" font-weight="bold" lengthAdjust="spacing"
              textLength="138" x="721" y="23.5332">PassengerEdgeApp
        </text><!--MD5=[796a38d8b74418517ebca31edc5ef4f0]
cluster dataStreamingP-->
        <rect fill="#FFFFFF" height="106" style="stroke:#000000;stroke-width:1.5;" width="282" x="570" y="59"/>
        <text fill="#000000" font-family="sans-serif" font-size="14" font-weight="bold" lengthAdjust="spacing"
              textLength="102" x="660" y="75.5332">DataStreaming
        </text><!--MD5=[33d247d40281434463be5572a1ef2bf2]
entity ContinuousUpdate-->
        <rect fill="#FFFFFF" height="37.6094" style="stroke:#000000;stroke-width:1.5;" width="137" x="426.5" y="575.5"/>
        <text fill="#000000" font-family="sans-serif" font-size="14" lengthAdjust="spacing" textLength="117" x="436.5"
              y="600.0332">ContinuousUpdate
        </text><!--MD5=[fbdeb607401388cae152d806c04097a6]
entity Prediction-->
        <rect fill="#FFFFFF" height="37.6094" style="stroke:#000000;stroke-width:1.5;" width="83" x="308.5" y="575.5"/>
        <text fill="#000000" font-family="sans-serif" font-size="14" lengthAdjust="spacing" textLength="63" x="318.5"
              y="600.0332">Prediction
        </text><!--MD5=[a00ff64de7a14fe91c8d495235c1c941]
entity TrainedModel-->
        <rect fill="#FFFFFF" height="37.6094" style="stroke:#000000;stroke-width:1.5;" width="107" x="398.5" y="707.5"/>
        <text fill="#000000" font-family="sans-serif" font-size="14" lengthAdjust="spacing" textLength="87" x="408.5"
              y="732.0332">TrainedModel
        </text><!--MD5=[e4831b25c28e5114609b83431e65898a]
entity dataIngestV1-->
        <rect fill="#FFFFFF" height="37.6094" style="stroke:#000000;stroke-width:1.5;" width="88" x="403" y="421.5"/>
        <text fill="#000000" font-family="sans-serif" font-size="14" lengthAdjust="spacing" textLength="68" x="413"
              y="446.0332">DataIngest
        </text><!--MD5=[a5a6ae0ba01c8a4589ab26bd33e87aad]
entity storage-->
        <path d="M506,835.5 C506,825.5 541,825.5 541,825.5 C541,825.5 576,825.5 576,835.5 L576,862.1094 C576,872.1094 541,872.1094 541,872.1094 C541,872.1094 506,872.1094 506,862.1094 L506,835.5 "
              fill="#FFFFFF" style="stroke:#000000;stroke-width:1.5;"/>
        <path d="M506,835.5 C506,845.5 541,845.5 541,845.5 C541,845.5 576,845.5 576,835.5 " fill="none"
              style="stroke:#000000;stroke-width:1.5;"/>
        <text fill="#000000" font-family="sans-serif" font-size="14" lengthAdjust="spacing" textLength="50" x="516"
              y="864.0332">Storage
        </text><!--MD5=[b50f437e54b64dee344cb5b4a9dea5a0]
entity dataIngestV2-->
        <rect fill="#FFFFFF" height="37.6094" style="stroke:#000000;stroke-width:1.5;" width="88" x="526" y="421.5"/>
        <text fill="#000000" font-family="sans-serif" font-size="14" lengthAdjust="spacing" textLength="68" x="536"
              y="446.0332">DataIngest
        </text><!--MD5=[dea32d5f6948f6a9ffd55fa148296996]
entity dataIngestV3-->
        <rect fill="#FFFFFF" height="37.6094" style="stroke:#000000;stroke-width:1.5;" width="88" x="649" y="421.5"/>
        <text fill="#000000" font-family="sans-serif" font-size="14" lengthAdjust="spacing" textLength="68" x="659"
              y="446.0332">DataIngest
        </text><!--MD5=[41e5c19ab27d6e06e8858a94f9219ccb]
entity DataIngestLoadBalancer-->
        <rect fill="#FFFFFF" height="37.6094" style="stroke:#000000;stroke-width:1.5;" width="176" x="482" y="316"/>
        <text fill="#000000" font-family="sans-serif" font-size="14" lengthAdjust="spacing" textLength="156" x="492"
              y="340.5332">DataIngestLoadBalancer
        </text><!--MD5=[165e11febf207de20474a4d9f0241c1d]
entity FarePredictionService-->
        <rect fill="#FFFFFF" height="37.6094" style="stroke:#000000;stroke-width:1.5;" width="160" x="208" y="421.5"/>
        <text fill="#000000" font-family="sans-serif" font-size="14" lengthAdjust="spacing" textLength="140" x="218"
              y="446.0332">FarePredictionService
        </text><!--MD5=[f41fa0947ebec849a1bf34a83b44a5cd]
entity localStorageV-->
        <rect fill="#FFFFFF" height="37.6094" style="stroke:#000000;stroke-width:1.5;" width="104" x="354" y="103"/>
        <text fill="#000000" font-family="sans-serif" font-size="14" lengthAdjust="spacing" textLength="84" x="364"
              y="127.5332">LocalStorage
        </text><!--MD5=[a83f4221d8ba4304e6106b73b38641b6]
entity BatchingV-->
        <rect fill="#FFFFFF" height="37.6094" style="stroke:#000000;stroke-width:1.5;" width="75" x="243.5" y="103"/>
        <text fill="#000000" font-family="sans-serif" font-size="14" lengthAdjust="spacing" textLength="55" x="253.5"
              y="127.5332">Batching
        </text><!--MD5=[56d01d6ac5c13f4e7bb9e5e981ca5abf]
entity FarePredictionClientV-->
        <rect fill="#FFFFFF" height="37.6094" style="stroke:#000000;stroke-width:1.5;" width="149" x="23.5" y="103"/>
        <text fill="#000000" font-family="sans-serif" font-size="14" lengthAdjust="spacing" textLength="129" x="33.5"
              y="127.5332">FarePredictionClient
        </text><!--MD5=[2b7ba3ff6f61fc813d0987add2860e01]
entity localStorageP-->
        <rect fill="#FFFFFF" height="37.6094" style="stroke:#000000;stroke-width:1.5;" width="104" x="724" y="103"/>
        <text fill="#000000" font-family="sans-serif" font-size="14" lengthAdjust="spacing" textLength="84" x="734"
              y="127.5332">LocalStorage
        </text><!--MD5=[6d7cfb91328836db2b3b22bd54b9f53a]
entity BatchingP-->
        <rect fill="#FFFFFF" height="37.6094" style="stroke:#000000;stroke-width:1.5;" width="75" x="613.5" y="103"/>
        <text fill="#000000" font-family="sans-serif" font-size="14" lengthAdjust="spacing" textLength="55" x="623.5"
              y="127.5332">Batching
        </text><!--MD5=[6e7fd469387bbcae069eabaf65393acf]
entity FarePredictionClientP-->
        <rect fill="#FFFFFF" height="37.6094" style="stroke:#000000;stroke-width:1.5;" width="149" x="876.5" y="103"/>
        <text fill="#000000" font-family="sans-serif" font-size="14" lengthAdjust="spacing" textLength="129" x="886.5"
              y="127.5332">FarePredictionClient
        </text><!--MD5=[1d2568426dee05fe88495c07ec99be98]
reverse link Prediction to TrainedModel-->
        <path d="M372.4,617.34 C380.17,625.31 388.75,634.57 396,643.5 C412.94,664.38 430.03,690.26 440.8,707.3 "
              fill="none" id="Prediction-backto-TrainedModel"
              style="stroke:#A80036;stroke-width:1.0;stroke-dasharray:7.0,7.0;"/>
        <polygon fill="#A80036"
                 points="368.66,613.54,372.1398,622.7536,372.174,617.0969,377.8308,617.1312,368.66,613.54"
                 style="stroke:#A80036;stroke-width:1.0;"/><!--MD5=[4152c28b6831f8bda187b9cdff5e5893]
link ContinuousUpdate to TrainedModel-->
        <path d="M488.4,613.69 C485.19,622.64 481.32,633.61 478,643.5 C471.37,663.26 464.24,685.85 459.13,702.3 "
              fill="none" id="ContinuousUpdate-to-TrainedModel"
              style="stroke:#A80036;stroke-width:1.0;stroke-dasharray:7.0,7.0;"/>
        <polygon fill="#A80036"
                 points="457.61,707.21,464.1048,699.8061,459.0965,702.4361,456.4665,697.4277,457.61,707.21"
                 style="stroke:#A80036;stroke-width:1.0;"/><!--MD5=[a03980e55ff7ca87e2e3454c7bfa026a]
link DataIngestLoadBalancer to dataIngestV1-->
        <path d="M548.58,354.03 C527.45,371.8 495.16,398.98 472.67,417.9 " fill="none"
              id="DataIngestLoadBalancer-to-dataIngestV1" style="stroke:#A80036;stroke-width:1.0;"/>
        <polygon fill="#A80036"
                 points="468.59,421.33,478.0548,418.6066,472.4194,418.115,472.9109,412.4796,468.59,421.33"
                 style="stroke:#A80036;stroke-width:1.0;"/><!--MD5=[af8a2054a462d436cab616902fc038da]
link DataIngestLoadBalancer to dataIngestV2-->
        <path d="M570,354.03 C570,371.29 570,397.41 570,416.23 " fill="none" id="DataIngestLoadBalancer-to-dataIngestV2"
              style="stroke:#A80036;stroke-width:1.0;"/>
        <polygon fill="#A80036" points="570,421.33,574,412.33,570,416.33,566,412.33,570,421.33"
                 style="stroke:#A80036;stroke-width:1.0;"/><!--MD5=[d98f399d9d6fdf7825c8cae784594adb]
link DataIngestLoadBalancer to dataIngestV3-->
        <path d="M591.42,354.03 C612.55,371.8 644.84,398.98 667.33,417.9 " fill="none"
              id="DataIngestLoadBalancer-to-dataIngestV3" style="stroke:#A80036;stroke-width:1.0;"/>
        <polygon fill="#A80036"
                 points="671.41,421.33,667.0891,412.4796,667.5806,418.115,661.9452,418.6066,671.41,421.33"
                 style="stroke:#A80036;stroke-width:1.0;"/><!--MD5=[b0444d76d3f034dddb3566b996ada168]
link dataIngestV1 to ContinuousUpdate-->
        <path d="M438.99,459.62 C432.67,476.6 426.11,502.44 434,523.5 C441.03,542.27 455.62,559.31 468.76,571.88 "
              fill="none" id="dataIngestV1-to-ContinuousUpdate" style="stroke:#A80036;stroke-width:1.0;"/>
        <polygon fill="#A80036"
                 points="472.42,575.31,468.5887,566.2369,468.7719,571.8908,463.118,572.0739,472.42,575.31"
                 style="stroke:#A80036;stroke-width:1.0;"/>
        <text fill="#000000" font-family="sans-serif" font-size="13" lengthAdjust="spacing" textLength="63" x="435"
              y="503.9951">continuous
        </text>
        <text fill="#000000" font-family="sans-serif" font-size="13" lengthAdjust="spacing" textLength="42" x="445.5"
              y="520.3467">training
        </text><!--MD5=[6e831facde46f7fae61ca465d8676fcd]
link dataIngestV2 to ContinuousUpdate-->
        <path d="M557.16,459.74 C551.25,468.52 544.38,479.33 539,489.5 C524.73,516.45 511.56,549.04 503.42,570.47 "
              fill="none" id="dataIngestV2-to-ContinuousUpdate" style="stroke:#A80036;stroke-width:1.0;"/>
        <polygon fill="#A80036" points="501.56,575.4,508.4912,568.403,503.3328,570.7248,501.011,565.5665,501.56,575.4"
                 style="stroke:#A80036;stroke-width:1.0;"/>
        <text fill="#000000" font-family="sans-serif" font-size="13" lengthAdjust="spacing" textLength="63" x="540"
              y="503.9951">continuous
        </text>
        <text fill="#000000" font-family="sans-serif" font-size="13" lengthAdjust="spacing" textLength="42" x="550.5"
              y="520.3467">training
        </text><!--MD5=[71a8d858c4dc1971de64ecef370147c7]
link dataIngestV3 to ContinuousUpdate-->
        <path d="M677.48,459.6 C658.55,481.21 627.22,515.47 612,523.5 C594.42,532.78 585.97,523 568,531.5 C547.67,541.12 528.44,557.89 514.82,571.56 "
              fill="none" id="dataIngestV3-to-ContinuousUpdate" style="stroke:#A80036;stroke-width:1.0;"/>
        <polygon fill="#A80036"
                 points="511.14,575.33,520.2962,571.7018,514.6396,571.7589,514.5825,566.1024,511.14,575.33"
                 style="stroke:#A80036;stroke-width:1.0;"/>
        <text fill="#000000" font-family="sans-serif" font-size="13" lengthAdjust="spacing" textLength="63" x="649"
              y="503.9951">continuous
        </text>
        <text fill="#000000" font-family="sans-serif" font-size="13" lengthAdjust="spacing" textLength="42" x="659.5"
              y="520.3467">training
        </text><!--MD5=[e5e039e576102d14e60b6e3189a8cf2f]
link dataIngestV1 to storage-->
        <path d="M425.92,459.58 C403.03,478.29 364.69,507.03 327,523.5 C312.38,529.89 303.63,520.57 292,531.5 C243.53,577.06 247.6,611.96 259,677.5 C266.44,720.3 260.69,739.39 292,769.5 C349.76,825.05 446.5,841.31 500.83,846.06 "
              fill="none" id="dataIngestV1-to-storage" style="stroke:#A80036;stroke-width:1.0;"/>
        <polygon fill="#A80036"
                 points="505.95,846.48,497.3133,841.7464,500.9673,846.0648,496.6489,849.7188,505.95,846.48"
                 style="stroke:#A80036;stroke-width:1.0;"/>
        <text fill="#000000" font-family="sans-serif" font-size="13" lengthAdjust="spacing" textLength="31" x="260"
              y="657.9951">Store
        </text>
        <text fill="#000000" font-family="sans-serif" font-size="13" lengthAdjust="spacing" textLength="25" x="263"
              y="674.3467">data
        </text><!--MD5=[86316db52767b32da21106d8e868d3e4]
link dataIngestV2 to storage-->
        <path d="M588.9,459.88 C596.21,468.19 603.82,478.58 608,489.5 C614.09,505.4 634.29,780.63 626,795.5 C616.27,812.95 598.09,825.32 581.03,833.66 "
              fill="none" id="dataIngestV2-to-storage" style="stroke:#A80036;stroke-width:1.0;"/>
        <polygon fill="#A80036" points="576.26,835.9,586.1067,835.6916,580.7851,833.7731,582.7036,828.4515,576.26,835.9"
                 style="stroke:#A80036;stroke-width:1.0;"/>
        <text fill="#000000" font-family="sans-serif" font-size="13" lengthAdjust="spacing" textLength="31" x="625"
              y="657.9951">Store
        </text>
        <text fill="#000000" font-family="sans-serif" font-size="13" lengthAdjust="spacing" textLength="25" x="628"
              y="674.3467">data
        </text><!--MD5=[3c979310ea210f8e49a545daed01632e]
link dataIngestV3 to storage-->
        <path d="M706.16,459.69 C711.58,468.28 717.24,478.96 720,489.5 C723.83,504.12 722.28,508.56 720,523.5 C700.89,648.7 714.85,697.19 635,795.5 C620.99,812.75 599.71,825.31 580.94,833.8 "
              fill="none" id="dataIngestV3-to-storage" style="stroke:#A80036;stroke-width:1.0;"/>
        <polygon fill="#A80036"
                 points="576.22,835.88,586.0688,835.9115,580.7955,833.8639,582.8431,828.5906,576.22,835.88"
                 style="stroke:#A80036;stroke-width:1.0;"/>
        <text fill="#000000" font-family="sans-serif" font-size="13" lengthAdjust="spacing" textLength="31" x="705"
              y="657.9951">Store
        </text>
        <text fill="#000000" font-family="sans-serif" font-size="13" lengthAdjust="spacing" textLength="25" x="708"
              y="674.3467">data
        </text><!--MD5=[4884ea750779b9b021dcb9e264882a3e]
link TrainedModel to storage-->
        <path d="M446.16,745.52 C442.59,760.01 440.22,780.38 449,795.5 C460.24,814.85 481.58,827.67 500.88,835.79 "
              fill="none" id="TrainedModel-to-storage" style="stroke:#A80036;stroke-width:1.0;"/>
        <polygon fill="#A80036" points="505.74,837.76,498.9144,830.66,501.1095,835.8735,495.896,838.0687,505.74,837.76"
                 style="stroke:#A80036;stroke-width:1.0;"/>
        <text fill="#000000" font-family="sans-serif" font-size="13" lengthAdjust="spacing" textLength="171" x="450"
              y="791.9951">Store Trained Model Versions
        </text><!--MD5=[2728ccd5645e64b2538f83f9e11d9f88]
link dataStreamingP to DataIngestLoadBalancer-->
        <path d="M576.3806,165.6245 C576.3607,166.1506 576.3406,166.68 576.3204,167.2126 C576.2801,168.2777 576.2392,169.3556 576.1979,170.4455 C575.8674,179.1648 575.5078,188.6522 575.1338,198.5213 C573.6375,237.9975 571.91,283.58 570.89,310.53 "
              fill="none" id="dataStreamingP-to-DataIngestLoadBalancer" style="stroke:#A80036;stroke-width:1.0;"/>
        <polygon fill="#A80036"
                 points="570.69,315.82,575.0465,306.9871,570.8898,310.824,567.0529,306.6673,570.69,315.82"
                 style="stroke:#A80036;stroke-width:1.0;"/>
        <text fill="#000000" font-family="sans-serif" font-size="13" lengthAdjust="spacing" textLength="42" x="585"
              y="227.4951">Stream
        </text>
        <text fill="#000000" font-family="sans-serif" font-size="13" lengthAdjust="spacing" textLength="62" x="575"
              y="243.8467">Passenger
        </text>
        <text fill="#000000" font-family="sans-serif" font-size="13" lengthAdjust="spacing" textLength="20" x="596"
              y="260.1982">Info
        </text><!--MD5=[6c6aaeb65997a341c840245b7df2d816]
link dataStreamingV to DataIngestLoadBalancer-->
        <path d="M208.1632,165.3342 C208.2064,165.6096 208.2507,165.8851 208.2961,166.1608 C208.4775,167.2638 208.6763,168.3692 208.8938,169.4748 C209.7638,173.897 210.9322,178.3204 212.4813,182.5855 C215.5794,191.1156 220.2,199.0125 227,205 C240.24,216.66 288.97,208.37 306,213 C392.25,236.44 485.65,285.44 534.93,313.36 "
              fill="none" id="dataStreamingV-to-DataIngestLoadBalancer" style="stroke:#A80036;stroke-width:1.0;"/>
        <polygon fill="#A80036" points="539.56,316,533.7163,308.0721,535.2144,313.527,529.7595,315.0251,539.56,316"
                 style="stroke:#A80036;stroke-width:1.0;"/>
        <text fill="#000000" font-family="sans-serif" font-size="13" lengthAdjust="spacing" textLength="42" x="440.5"
              y="227.4951">Stream
        </text>
        <text fill="#000000" font-family="sans-serif" font-size="13" lengthAdjust="spacing" textLength="43" x="440"
              y="243.8467">Vehicle
        </text>
        <text fill="#000000" font-family="sans-serif" font-size="13" lengthAdjust="spacing" textLength="20" x="451.5"
              y="260.1982">Info
        </text><!--MD5=[33cf870efa2d0b7491eb812388a909f6]
link FarePredictionClientP to FarePredictionService-->
        <path d="M936.15,141.06 C898.07,186.06 791.79,303.62 676,360.5 C662.41,367.18 483.71,402.09 373.63,423.2 "
              fill="none" id="FarePredictionClientP-to-FarePredictionService" style="stroke:#A80036;stroke-width:1.0;"/>
        <polygon fill="#A80036" points="368.44,424.2,378.0325,426.4325,373.3504,423.2579,376.5251,418.5758,368.44,424.2"
                 style="stroke:#A80036;stroke-width:1.0;"/>
        <text fill="#000000" font-family="sans-serif" font-size="13" lengthAdjust="spacing" textLength="56" x="808.5"
              y="323.9951">Departure
        </text>
        <text fill="#000000" font-family="sans-serif" font-size="13" lengthAdjust="spacing" textLength="65" x="804"
              y="340.3467">Destination
        </text>
        <text fill="#000000" font-family="sans-serif" font-size="13" lengthAdjust="spacing" textLength="28" x="822.5"
              y="356.6982">Time
        </text><!--MD5=[6986e3ca2a3b38f14618d15b5c888f66]
reverse link FarePredictionClientP to FarePredictionService-->
        <path d="M951.53,146.1 C951.26,194.33 943.21,305.8 878,360.5 C793.59,431.3 494.89,404.76 386,421.5 C380.19,422.39 374.19,423.37 368.16,424.38 "
              fill="none" id="FarePredictionClientP-backto-FarePredictionService"
              style="stroke:#A80036;stroke-width:1.0;"/>
        <polygon fill="#A80036" points="951.53,141.08,947.53,150.08,951.53,146.08,955.53,150.08,951.53,141.08"
                 style="stroke:#A80036;stroke-width:1.0;"/>
        <text fill="#000000" font-family="sans-serif" font-size="13" lengthAdjust="spacing" textLength="55" x="933"
              y="332.4951">Predicted
        </text>
        <text fill="#000000" font-family="sans-serif" font-size="13" lengthAdjust="spacing" textLength="26" x="947.5"
              y="348.8467">Fare
        </text><!--MD5=[c8588b24ea7e337f2bf3a7bb7debc21a]
link FarePredictionClientV to FarePredictionService-->
        <path d="M99.37,141.22 C103.39,183.66 118.32,290.74 170,360.5 C188.79,385.86 218.3,405.62 243.11,419.03 "
              fill="none" id="FarePredictionClientV-to-FarePredictionService" style="stroke:#A80036;stroke-width:1.0;"/>
        <polygon fill="#A80036"
                 points="247.68,421.46,241.6251,413.6922,243.2694,419.1048,237.8568,420.7492,247.68,421.46"
                 style="stroke:#A80036;stroke-width:1.0;"/>
        <text fill="#000000" font-family="sans-serif" font-size="13" lengthAdjust="spacing" textLength="56" x="175.5"
              y="323.9951">Departure
        </text>
        <text fill="#000000" font-family="sans-serif" font-size="13" lengthAdjust="spacing" textLength="65" x="171"
              y="340.3467">Destination
        </text>
        <text fill="#000000" font-family="sans-serif" font-size="13" lengthAdjust="spacing" textLength="28" x="189.5"
              y="356.6982">Time
        </text><!--MD5=[4574e2f152758e5328dc53845dcf73bd]
reverse link FarePredictionClientV to FarePredictionService-->
        <path d="M125.68,144.52 C158,171.08 210.86,219.27 241,272 C269.32,321.56 281.44,389.24 285.85,421.27 "
              fill="none" id="FarePredictionClientV-backto-FarePredictionService"
              style="stroke:#A80036;stroke-width:1.0;"/>
        <polygon fill="#A80036"
                 points="121.45,141.07,125.9127,149.8498,125.3306,144.223,130.9574,143.6409,121.45,141.07"
                 style="stroke:#A80036;stroke-width:1.0;"/>
        <text fill="#000000" font-family="sans-serif" font-size="13" lengthAdjust="spacing" textLength="55" x="275"
              y="332.4951">Predicted
        </text>
        <text fill="#000000" font-family="sans-serif" font-size="13" lengthAdjust="spacing" textLength="26" x="289.5"
              y="348.8467">Fare
        </text><!--MD5=[5bb399f84dc3fd74684cbc75d42fb5da]
link FarePredictionService to Prediction-->
        <path d="M295.36,459.53 C306.68,487.3 328.38,540.49 340.75,570.82 " fill="none"
              id="FarePredictionService-to-Prediction" style="stroke:#A80036;stroke-width:1.0;"/>
        <polygon fill="#A80036" points="342.65,575.49,342.9587,565.646,340.7635,570.8595,335.55,568.6644,342.65,575.49"
                 style="stroke:#A80036;stroke-width:1.0;"/>
        <text fill="#000000" font-family="sans-serif" font-size="13" lengthAdjust="spacing" textLength="81" x="321"
              y="511.9951">Get prediction
        </text><!--MD5=[8e587687b45faaff5a1138c033b44eb9]
</g></svg>